<?xml version="1.0" encoding="UTF-8" standalone="no"?>
<svg xmlns="http://www.w3.org/2000/svg" version="1.2" xmlns:xlink="http://www.w3.org/1999/xlink" width="1140" height="1860"><defs><filter id="ds" x="-20%" y="-20%" width="140%" height="140%"><feGaussianBlur in="SourceAlpha" stdDeviation="1.5" result="blur-out"></feGaussianBlur><feOffset dx="3" dy="3" in="blur-out" result="the-shadow"></feOffset><feColorMatrix in="the-shadow" result="color-out" type="matrix" values="0 0 0 0 0 0 0 0 0 0 0 0 0 0 0 0 0 0 0.3 0"></feColorMatrix><feBlend in="SourceGraphic" in2="color-out" mode="normal"></feBlend></filter><symbol id="sharp" class="marker-def sharp-arrow-marker" style="overflow:visible;"><path d="M 0 0 L -3.6666667461395264 4.0 L 7.333333492279053 0 L -3.6666667461395264 -4.0 z"></path></symbol><symbol id="triangle" class="marker-def triangle-arrow-marker" style="overflow:visible;"><path d="M 0 -4 L 11 0 L 0 4 z"></path></symbol><symbol id="very-sharp" class="marker-def sharp-arrow-marker" style="overflow:visible;"><path d="M 0 0 L -6.0 4.0 L 12.0 0 L -6.0 -4.0 z"></path></symbol></defs><g data-dali-layout-tag="align"><rect y="0" rx="0" stroke="none" fill="none" width="150" filter="none" id="title" class="box-text" x="40" ry="0" height="70"></rect><g data-dali-layout-tag="stack" transform="translate(-0.9010429382324219 0.0)"><text fill-text="black" fill-fill="white" font-family="sans-serif" font-size="16" x="40" y="35">On-boarding New User</text></g></g><rect y="40" rx="0" stroke="none" fill="#e8f9df" width="1060" filter="none" id="bounding-rectangle" class="box-text" x="40" ry="0" height="1780"></rect><g><g><g data-dali-layout-tag="align"><rect y="100" rx="0" stroke="black" fill="#b7d03b" width="100" filter="url(#ds)" stroke-width="0.1" id="user" class="box-text" x="100" ry="0" height="50"></rect><g data-dali-layout-tag="stack" transform="translate(20.740234375 104.2890625)"><text fill="#000000" font-family="sans-serif" font-size="12" x="100" y="25">New User</text></g></g><line x1="150" y1="150" x2="150" y2="1760" stroke="darkgrey" width="1"></line></g><g><g data-dali-layout-tag="align"><rect y="100" rx="0" stroke="black" fill="#bcffdb" width="100" filter="url(#ds)" stroke-width="0.1" id="ui" class="box-text" x="240" ry="0" height="50"></rect><g data-dali-layout-tag="stack" transform="translate(7.3515625 104.47265625)"><text fill="#000000" font-family="sans-serif" font-size="12" x="240" y="25">User Interface</text></g></g><line x1="290" y1="150" x2="290" y2="1760" stroke="darkgrey" width="1"></line></g><g><g data-dali-layout-tag="align"><rect y="100" rx="0" stroke="black" fill="#3fc283" width="100" filter="url(#ds)" stroke-width="0.1" id="api" class="box-text" x="380" ry="0" height="50"></rect><g data-dali-layout-tag="stack" transform="translate(18.8779296875 104.3671875)"><text fill="#000000" font-family="sans-serif" font-size="12" x="380" y="25">API Server</text></g></g><line x1="430" y1="150" x2="430" y2="1760" stroke="darkgrey" width="1"></line></g><g><g data-dali-layout-tag="align"><rect y="100" rx="0" stroke="black" fill="#3fc283" width="100" filter="url(#ds)" stroke-width="0.1" id="cron" class="box-text" x="520" ry="0" height="50"></rect><g data-dali-layout-tag="stack" transform="translate(24.7041015625 103.357421875)"><text fill="#000000" font-family="sans-serif" font-size="12" x="520" y="25">Cron Job</text></g></g><line x1="570" y1="150" x2="570" y2="1760" stroke="darkgrey" width="1"></line></g><g><g data-dali-layout-tag="align"><rect y="100" rx="0" stroke="black" fill="#3fc283" width="100" filter="url(#ds)" stroke-width="0.1" id="db" class="box-text" x="660" ry="0" height="50"></rect><g data-dali-layout-tag="stack" transform="translate(21.099609375 104.47265625)"><text fill="#000000" font-family="sans-serif" font-size="12" x="660" y="25">Database</text></g></g><line x1="710" y1="150" x2="710" y2="1760" stroke="darkgrey" width="1"></line></g><g><g data-dali-layout-tag="align"><rect y="100" rx="0" stroke="black" fill="#3fc283" width="100" filter="url(#ds)" stroke-width="0.1" id="log" class="box-text" x="800" ry="0" height="50"></rect><g data-dali-layout-tag="stack" transform="translate(17.0048828125 103.205078125)"><text fill="#000000" font-family="sans-serif" font-size="12" x="800" y="25">Log Server</text></g></g><line x1="850" y1="150" x2="850" y2="1760" stroke="darkgrey" width="1"></line></g><g><g data-dali-layout-tag="align"><rect y="100" rx="0" stroke="black" fill="#3b5c0a" width="100" filter="url(#ds)" stroke-width="0.1" id="email" class="box-text" x="940" ry="0" height="50"></rect><g data-dali-layout-tag="stack" transform="translate(11.1806640625 104.47265625)"><text fill="#d2d83f" font-family="sans-serif" font-size="12" x="940" y="25">Email Server</text></g></g><line x1="990" y1="150" x2="990" y2="1760" stroke="darkgrey" width="1"></line></g></g><g><g data-dali-layout-tag="align"><rect y="185" rx="0" stroke="none" fill="none" width="100" filter="none" id="register" class="box-text" x="42" ry="0" height="50"></rect><g data-dali-layout-tag="stack" transform="translate(13.8125 188.310546875)"><text fill="#3b5c0a" font-family="sans-serif" font-size="12" x="42" y="25">#1 Register</text></g></g><g data-dali-layout-tag="stack"><g><polyline points="158,230 271.0,230.0"></polyline><use xlink:href="#triangle" class="marker marker-end" transform="translate(271.0 230.0) rotate(0.0)" fill="black"></use></g><g data-dali-layout-tag="stack"><line x1="158" y1="230" x2="282" y2="230" stroke="black" width="2"></line><g data-dali-layout-tag="align" transform="translate(168.0 230.000124)"><rect y="0" rx="0" stroke="none" fill="none" width="104" filter="none" id="register" class="box-text" x="0" ry="0" height="30"></rect><g data-dali-layout-tag="stack" transform="translate(13.990234375 -2.58740234375)"><text fill-text="black" fill-fill="white" font-family="sans-serif" font-size="9" x="0" y="15">Enter details like</text><text fill-text="black" fill-fill="white" font-family="sans-serif" font-size="9" x="0" y="15" transform="translate(-2.15478515625 10.966796875)">email, mobile etc.</text></g></g></g></g><g data-dali-layout-tag="stack"><g><polyline points="298,280 411.0,280.0"></polyline><use xlink:href="#triangle" class="marker marker-end" transform="translate(411.0 280.0) rotate(0.0)" fill="black"></use></g><g data-dali-layout-tag="stack"><line x1="298" y1="280" x2="422" y2="280" stroke="black" width="2"></line><g data-dali-layout-tag="align" transform="translate(308.0 280.000124)"><rect y="0" rx="0" stroke="none" fill="none" width="104" filter="none" id="register" class="box-text" x="0" ry="0" height="30"></rect><g data-dali-layout-tag="stack" transform="translate(18.5546875 2.48291015625)"><text fill-text="black" fill-fill="white" font-family="sans-serif" font-size="9" x="0" y="15">POST /api/user</text></g></g></g></g><g data-dali-layout-tag="stack"><g><polyline points="438,330 830.0,330.0"></polyline><use xlink:href="#very-sharp" class="marker marker-end" transform="translate(830.0 330.0) rotate(0.0)" fill="black"></use></g><g data-dali-layout-tag="stack"><line x1="438" y1="330" x2="842" y2="330" stroke="black" width="2"></line><g data-dali-layout-tag="align" transform="translate(448.0 330.000404)"><rect y="0" rx="0" stroke="none" fill="none" width="384" filter="none" id="register" class="box-text" x="0" ry="0" height="30"></rect><g data-dali-layout-tag="stack" transform="translate(164.6015625 2.48291015625)"><text fill-text="black" fill-fill="white" font-family="sans-serif" font-size="9" x="0" y="15">Registration</text></g></g></g></g><g data-dali-layout-tag="stack"><g><polyline points="438,380 691.0,380.0"></polyline><use xlink:href="#triangle" class="marker marker-end" transform="translate(691.0 380.0) rotate(0.0)" fill="black"></use></g><g data-dali-layout-tag="stack"><line x1="438" y1="380" x2="702" y2="380" stroke="black" width="2"></line><g data-dali-layout-tag="align" transform="translate(448.0 380.000264)"><rect y="0" rx="0" stroke="none" fill="none" width="244" filter="none" id="register" class="box-text" x="0" ry="0" height="30"></rect><g data-dali-layout-tag="stack" transform="translate(79.87548828125 3.3544921875)"><text fill-text="black" fill-fill="white" font-family="sans-serif" font-size="9" x="0" y="15">Create user record</text></g></g></g></g><g data-dali-layout-tag="stack"><g><polyline points="702,430 445.33333349227905,430.0"></polyline><use xlink:href="#sharp" class="marker marker-end" transform="translate(445.33333349227905 430.0) rotate(180.0)" fill="#999"></use></g><g data-dali-layout-tag="stack"><line x1="702" y1="430" x2="438" y2="430" stroke="#999" width="2"></line></g></g><g data-dali-layout-tag="stack"><g><polyline points="438,480 691.0,480.0"></polyline><use xlink:href="#triangle" class="marker marker-end" transform="translate(691.0 480.0) rotate(0.0)" fill="black"></use></g><g data-dali-layout-tag="stack"><line x1="438" y1="480" x2="702" y2="480" stroke="black" width="2"></line><g data-dali-layout-tag="align" transform="translate(448.0 480.000264)"><rect y="0" rx="0" stroke="none" fill="none" width="244" filter="none" id="register" class="box-text" x="0" ry="0" height="30"></rect><g data-dali-layout-tag="stack" transform="translate(72.597412109375 3.275390625)"><text fill-text="black" fill-fill="white" font-family="sans-serif" font-size="9" x="0" y="15">Generate &amp; store OTP</text></g></g></g></g><g data-dali-layout-tag="stack"><g><polyline points="702,530 445.33333349227905,530.0"></polyline><use xlink:href="#sharp" class="marker marker-end" transform="translate(445.33333349227905 530.0) rotate(180.0)" fill="#999"></use></g><g data-dali-layout-tag="stack"><line x1="702" y1="530" x2="438" y2="530" stroke="#999" width="2"></line></g></g><g data-dali-layout-tag="stack"><g><polyline points="438,580 970.0,580.0"></polyline><use xlink:href="#very-sharp" class="marker marker-end" transform="translate(970.0 580.0) rotate(0.0)" fill="black"></use></g><g data-dali-layout-tag="stack"><line x1="438" y1="580" x2="982" y2="580" stroke="black" width="2"></line><g data-dali-layout-tag="align" transform="translate(448.0 580.000544)"><rect y="0" rx="0" stroke="none" fill="none" width="524" filter="none" id="register" class="box-text" x="0" ry="0" height="30"></rect><g data-dali-layout-tag="stack" transform="translate(222.74072265625 3.3544921875)"><text fill-text="black" fill-fill="white" font-family="sans-serif" font-size="9" x="0" y="15">Send OTP to user</text></g></g></g></g><g data-dali-layout-tag="stack"><g><polyline points="422,630 305.33333349227905,630.0"></polyline><use xlink:href="#sharp" class="marker marker-end" transform="translate(305.33333349227905 630.0) rotate(180.0)" fill="#999"></use></g><g data-dali-layout-tag="stack"><line x1="422" y1="630" x2="298" y2="630" stroke="#999" width="2"></line></g></g><g data-dali-layout-tag="stack"><g><polyline points="282,680 165.33333349227905,680.0"></polyline><use xlink:href="#sharp" class="marker marker-end" transform="translate(165.33333349227905 680.0) rotate(180.0)" fill="#999"></use></g><g data-dali-layout-tag="stack"><line x1="282" y1="680" x2="158" y2="680" stroke="#999" width="2"></line><g data-dali-layout-tag="align" transform="translate(219.99998474121094 680.000124)"><rect y="0" rx="0" stroke="none" fill="none" width="0" filter="none" id="register" class="box-text" x="0" ry="0" height="30"></rect><g data-dali-layout-tag="stack" transform="translate(-49.78196742187538 -3.00048828125)"><text fill-text="black" fill-fill="white" font-family="sans-serif" font-size="9" x="0" y="15">Show message asking</text><text fill-text="black" fill-fill="white" font-family="sans-serif" font-size="9" x="0" y="15" transform="translate(14.376708984375 12.7099609375)">user to validate</text></g></g></g></g><g data-dali-layout-tag="stack"><g data-dali-layout-tag="stack"><g><polyline points="158,730 246.0,730.0"></polyline><use xlink:href="#very-sharp" class="marker marker-end" transform="translate(246.0 730.0) rotate(0.0)" fill="#046307"></use></g><g data-dali-layout-tag="stack"><line x1="158" y1="730" x2="258.0" y2="730" stroke="#046307" width="2"></line><g data-dali-layout-tag="align" transform="translate(168.0 730.0001)"><rect y="0" rx="0" stroke="none" fill="none" width="80.0" filter="none" id="register" class="box-text" x="0" ry="0" height="30"></rect><g data-dali-layout-tag="stack" transform="translate(6.372314453125 -2.12890625)"><text fill-text="black" fill-fill="white" font-family="sans-serif" font-size="9" x="0" y="15">User is send to</text><text fill-text="black" fill-fill="white" font-family="sans-serif" font-size="9" x="0" y="15" transform="translate(-4.76806640625 10.966796875)">validation screen</text></g></g></g></g><g data-dali-layout-tag="align" transform="translate(260.0 730.0001220703125)"><rect y="0" rx="0" stroke="black" fill="#d2d83f" width="24" filter="none" stroke-width="0.1" id="register" class="box-text" x="0" ry="0" height="30"></rect><g data-dali-layout-tag="stack" transform="translate(4.744140625 3.7109375)"><text fill-text="black" fill-fill="white" font-family="sans-serif" font-size="10" x="0" y="15">#2</text></g></g></g><g data-dali-layout-tag="align"><rect y="825" rx="0" stroke="none" fill="none" width="100" filter="none" id="validate" class="box-text" x="42" ry="0" height="50"></rect><g data-dali-layout-tag="stack" transform="translate(14.458984375 829.47265625)"><text fill="#3b5c0a" font-family="sans-serif" font-size="12" x="42" y="25">#2 Validate</text></g></g><g data-dali-layout-tag="stack"><g><polyline points="158,870 271.0,870.0"></polyline><use xlink:href="#triangle" class="marker marker-end" transform="translate(271.0 870.0) rotate(0.0)" fill="black"></use></g><g data-dali-layout-tag="stack"><line x1="158" y1="870" x2="282" y2="870" stroke="black" width="2"></line><g data-dali-layout-tag="align" transform="translate(168.0 870.000124)"><rect y="0" rx="0" stroke="none" fill="none" width="104" filter="none" id="validate" class="box-text" x="0" ry="0" height="30"></rect><g data-dali-layout-tag="stack" transform="translate(24.64697265625 -3.458984375)"><text fill-text="black" fill-fill="white" font-family="sans-serif" font-size="9" x="0" y="15">Enter email,</text><text fill-text="black" fill-fill="white" font-family="sans-serif" font-size="9" x="0" y="15" transform="translate(-14.677001953125 11.8837890625)">password and OTP</text></g></g></g></g><g data-dali-layout-tag="stack"><g><polyline points="298,920 411.0,920.0"></polyline><use xlink:href="#triangle" class="marker marker-end" transform="translate(411.0 920.0) rotate(0.0)" fill="black"></use></g><g data-dali-layout-tag="stack"><line x1="298" y1="920" x2="422" y2="920" stroke="black" width="2"></line><g data-dali-layout-tag="align" transform="translate(308.0 920.000124)"><rect y="0" rx="0" stroke="none" fill="none" width="104" filter="none" id="validate" class="box-text" x="0" ry="0" height="30"></rect><g data-dali-layout-tag="stack" transform="translate(2.31396484375 2.48291015625)"><text fill-text="black" fill-fill="white" font-family="sans-serif" font-size="9" x="0" y="15">PUT /api/user/validate</text></g></g></g></g><g data-dali-layout-tag="stack"><g><polyline points="438,970 830.0,970.0"></polyline><use xlink:href="#very-sharp" class="marker marker-end" transform="translate(830.0 970.0) rotate(0.0)" fill="black"></use></g><g data-dali-layout-tag="stack"><line x1="438" y1="970" x2="842" y2="970" stroke="black" width="2"></line><g data-dali-layout-tag="align" transform="translate(448.0 970.000404)"><rect y="0" rx="0" stroke="none" fill="none" width="384" filter="none" id="validate" class="box-text" x="0" ry="0" height="30"></rect><g data-dali-layout-tag="stack" transform="translate(169.77685546875 3.3544921875)"><text fill-text="black" fill-fill="white" font-family="sans-serif" font-size="9" x="0" y="15">Validation</text></g></g></g></g><g data-dali-layout-tag="stack"><g><polyline points="438,1020 691.0,1020.0"></polyline><use xlink:href="#triangle" class="marker marker-end" transform="translate(691.0 1020.0) rotate(0.0)" fill="black"></use></g><g data-dali-layout-tag="stack"><line x1="438" y1="1020" x2="702" y2="1020" stroke="black" width="2"></line><g data-dali-layout-tag="align" transform="translate(448.0 1020.000264)"><rect y="0" rx="0" stroke="none" fill="none" width="244" filter="none" id="validate" class="box-text" x="0" ry="0" height="30"></rect><g data-dali-layout-tag="stack" transform="translate(82.643310546875 3.3544921875)"><text fill-text="black" fill-fill="white" font-family="sans-serif" font-size="9" x="0" y="15">Fetch user &amp; OTP</text></g></g></g></g><g data-dali-layout-tag="stack"><g><polyline points="702,1070 445.33333349227905,1070.0"></polyline><use xlink:href="#sharp" class="marker marker-end" transform="translate(445.33333349227905 1070.0) rotate(180.0)" fill="#999"></use></g><g data-dali-layout-tag="stack"><line x1="702" y1="1070" x2="438" y2="1070" stroke="#999" width="2"></line><g data-dali-layout-tag="align" transform="translate(569.9999847412109 1070.000264)"><rect y="0" rx="0" stroke="none" fill="none" width="0" filter="none" id="validate" class="box-text" x="0" ry="0" height="30"></rect><g data-dali-layout-tag="stack" transform="translate(-22.36009242187538 2.81689453125)"><text fill-text="black" fill-fill="white" font-family="sans-serif" font-size="9" x="0" y="15">User, OTP</text></g></g></g></g><g><line x1="438" y1="1120" x2="538.0" y2="1120" stroke="black" stroke-width="1" width="1"></line><line x1="538.0" y1="1120" x2="538.0" y2="1133" stroke="black" stroke-width="1" width="1"></line><g data-dali-layout-tag="stack"><g><polyline points="538.0,1133 449.0,1133.0"></polyline><use xlink:href="#triangle" class="marker marker-end" transform="translate(449.0 1133.0) rotate(180.0)" fill="black"></use></g><g data-dali-layout-tag="stack"><line x1="538.0" y1="1133" x2="438" y2="1133" stroke="black" width="2"></line><g data-dali-layout-tag="align" transform="translate(487.99998474121094 1133.0001)"><rect y="0" rx="0" stroke="none" fill="none" width="0" filter="none" id="validate" class="box-text" x="0" ry="0" height="30"></rect><g data-dali-layout-tag="stack" transform="translate(-18.27977015625038 -3.00048828125)"><text fill-text="black" fill-fill="white" font-family="sans-serif" font-size="9" x="0" y="15">Validate</text><text fill-text="black" fill-fill="white" font-family="sans-serif" font-size="9" x="0" y="15" transform="translate(-18.793212890625 10.966796875)">password &amp; OTP</text></g></g></g></g></g><g data-dali-layout-tag="stack"><g><polyline points="438,1170 691.0,1170.0"></polyline><use xlink:href="#triangle" class="marker marker-end" transform="translate(691.0 1170.0) rotate(0.0)" fill="black"></use></g><g data-dali-layout-tag="stack"><line x1="438" y1="1170" x2="702" y2="1170" stroke="black" width="2"></line><g data-dali-layout-tag="align" transform="translate(448.0 1170.000264)"><rect y="0" rx="0" stroke="none" fill="none" width="244" filter="none" id="validate" class="box-text" x="0" ry="0" height="30"></rect><g data-dali-layout-tag="stack" transform="translate(89.26513671875 -3.00048828125)"><text fill-text="black" fill-fill="white" font-family="sans-serif" font-size="9" x="0" y="15">Update user &amp;</text><text fill-text="black" fill-fill="white" font-family="sans-serif" font-size="9" x="0" y="15" transform="translate(0.39697265625 12.7099609375)">create session</text></g></g></g></g><g data-dali-layout-tag="stack"><g><polyline points="702,1220 445.33333349227905,1220.0"></polyline><use xlink:href="#sharp" class="marker marker-end" transform="translate(445.33333349227905 1220.0) rotate(180.0)" fill="#999"></use></g><g data-dali-layout-tag="stack"><line x1="702" y1="1220" x2="438" y2="1220" stroke="#999" width="2"></line><g data-dali-layout-tag="align" transform="translate(569.9999847412109 1220.000264)"><rect y="0" rx="0" stroke="none" fill="none" width="0" filter="none" id="validate" class="box-text" x="0" ry="0" height="30"></rect><g data-dali-layout-tag="stack" transform="translate(-31.25901820312538 3.3544921875)"><text fill-text="black" fill-fill="white" font-family="sans-serif" font-size="9" x="0" y="15">Session token</text></g></g></g></g><g data-dali-layout-tag="stack"><g><polyline points="438,1270 970.0,1270.0"></polyline><use xlink:href="#very-sharp" class="marker marker-end" transform="translate(970.0 1270.0) rotate(0.0)" fill="black"></use></g><g data-dali-layout-tag="stack"><line x1="438" y1="1270" x2="982" y2="1270" stroke="black" width="2"></line><g data-dali-layout-tag="align" transform="translate(448.0 1270.000544)"><rect y="0" rx="0" stroke="none" fill="none" width="524" filter="none" id="validate" class="box-text" x="0" ry="0" height="30"></rect><g data-dali-layout-tag="stack" transform="translate(215.440673828125 3.3544921875)"><text fill-text="black" fill-fill="white" font-family="sans-serif" font-size="9" x="0" y="15">Send welcome email</text></g></g></g></g><g data-dali-layout-tag="stack"><g><polyline points="422,1320 305.33333349227905,1320.0"></polyline><use xlink:href="#sharp" class="marker marker-end" transform="translate(305.33333349227905 1320.0) rotate(180.0)" fill="#999"></use></g><g data-dali-layout-tag="stack"><line x1="422" y1="1320" x2="298" y2="1320" stroke="#999" width="2"></line><g data-dali-layout-tag="align" transform="translate(359.99998474121094 1320.000124)"><rect y="0" rx="0" stroke="none" fill="none" width="0" filter="none" id="validate" class="box-text" x="0" ry="0" height="30"></rect><g data-dali-layout-tag="stack" transform="translate(-31.25901820312538 3.3544921875)"><text fill-text="black" fill-fill="white" font-family="sans-serif" font-size="9" x="0" y="15">Session token</text></g></g></g></g><g data-dali-layout-tag="stack"><g><polyline points="282,1370 165.33333349227905,1370.0"></polyline><use xlink:href="#sharp" class="marker marker-end" transform="translate(165.33333349227905 1370.0) rotate(180.0)" fill="#999"></use></g><g data-dali-layout-tag="stack"><line x1="282" y1="1370" x2="158" y2="1370" stroke="#999" width="2"></line><g data-dali-layout-tag="align" transform="translate(219.99998474121094 1370.000124)"><rect y="0" rx="0" stroke="none" fill="none" width="0" filter="none" id="validate" class="box-text" x="0" ry="0" height="30"></rect><g data-dali-layout-tag="stack" transform="translate(-39.82688929687538 2.40380859375)"><text fill-text="black" fill-fill="white" font-family="sans-serif" font-size="9" x="0" y="15">Success message</text></g></g></g></g><g data-dali-layout-tag="stack"><g><polyline points="158,1420 270.0,1420.0"></polyline><use xlink:href="#very-sharp" class="marker marker-end" transform="translate(270.0 1420.0) rotate(0.0)" fill="black"></use></g><g data-dali-layout-tag="stack"><line x1="158" y1="1420" x2="282" y2="1420" stroke="black" width="2"></line><g data-dali-layout-tag="align" transform="translate(168.0 1420.000124)"><rect y="0" rx="0" stroke="none" fill="none" width="104" filter="none" id="validate" class="box-text" x="0" ry="0" height="30"></rect><g data-dali-layout-tag="stack" transform="translate(18.372314453125 -2.12890625)"><text fill-text="black" fill-fill="white" font-family="sans-serif" font-size="9" x="0" y="15">User is send to</text><text fill-text="black" fill-fill="white" font-family="sans-serif" font-size="9" x="0" y="15" transform="translate(4.355712890625 10.966796875)">home screen</text></g></g></g></g><g data-dali-layout-tag="align"><rect y="1515" rx="0" stroke="none" fill="none" width="100" filter="none" id="remind" class="box-text" x="462" ry="0" height="50"></rect><g data-dali-layout-tag="stack" transform="translate(23.78125 1505.021484375)"><text fill="#3b5c0a" font-family="sans-serif" font-size="12" x="462" y="25">#3 Daily</text><text fill="#3b5c0a" font-family="sans-serif" font-size="12" x="462" y="25" transform="translate(-11.9228515625 15.61328125)">reminder for</text><text fill="#3b5c0a" font-family="sans-serif" font-size="12" x="462" y="25" transform="translate(-2.9912109375 28.90234375)">validation</text></g></g><g data-dali-layout-tag="stack"><g><polyline points="578,1560 691.0,1560.0"></polyline><use xlink:href="#triangle" class="marker marker-end" transform="translate(691.0 1560.0) rotate(0.0)" fill="black"></use></g><g data-dali-layout-tag="stack"><line x1="578" y1="1560" x2="702" y2="1560" stroke="black" width="2"></line><g data-dali-layout-tag="align" transform="translate(588.0 1560.000124)"><rect y="0" rx="0" stroke="none" fill="none" width="104" filter="none" id="remind" class="box-text" x="0" ry="0" height="30"></rect><g data-dali-layout-tag="stack" transform="translate(27.817626953125 -2.12890625)"><text fill-text="black" fill-fill="white" font-family="sans-serif" font-size="9" x="0" y="15">Fetch non-</text><text fill-text="black" fill-fill="white" font-family="sans-serif" font-size="9" x="0" y="15" transform="translate(-10.248046875 10.966796875)">validated users</text></g></g></g></g><g data-dali-layout-tag="stack"><g><polyline points="702,1610 585.333333492279,1610.0"></polyline><use xlink:href="#sharp" class="marker marker-end" transform="translate(585.333333492279 1610.0) rotate(180.0)" fill="#999"></use></g><g data-dali-layout-tag="stack"><line x1="702" y1="1610" x2="578" y2="1610" stroke="#999" width="2"></line><g data-dali-layout-tag="align" transform="translate(639.9999847412109 1610.000124)"><rect y="0" rx="0" stroke="none" fill="none" width="0" filter="none" id="remind" class="box-text" x="0" ry="0" height="30"></rect><g data-dali-layout-tag="stack" transform="translate(-12.773422500000379 3.216796875)"><text fill-text="black" fill-fill="white" font-family="sans-serif" font-size="9" x="0" y="15">Users</text></g></g></g></g><g data-dali-layout-tag="stack"><g><polyline points="578,1660 970.0,1660.0"></polyline><use xlink:href="#very-sharp" class="marker marker-end" transform="translate(970.0 1660.0) rotate(0.0)" fill="black"></use></g><g data-dali-layout-tag="stack"><line x1="578" y1="1660" x2="982" y2="1660" stroke="black" width="2"></line><g data-dali-layout-tag="align" transform="translate(588.0 1660.000404)"><rect y="0" rx="0" stroke="none" fill="none" width="384" filter="none" id="remind" class="box-text" x="0" ry="0" height="30"></rect><g data-dali-layout-tag="stack" transform="translate(122.971435546875 2.89599609375)"><text fill-text="black" fill-fill="white" font-family="sans-serif" font-size="9" x="0" y="15">For each, send reminder email</text></g></g></g></g></g><g><rect y="180" rx="0" stroke="none" fill="#596c29" width="16" filter="none" id="bar-:user" class="box-text" x="142" ry="0" height="600"></rect><rect y="820" rx="0" stroke="none" fill="#596c29" width="16" filter="none" id="bar-:user" class="box-text" x="142" ry="0" height="650"></rect></g><g><rect y="230" rx="0" stroke="none" fill="#4f7942" width="16" filter="none" id="bar-:ui" class="box-text" x="282" ry="0" height="450"></rect><rect y="870" rx="0" stroke="none" fill="#4f7942" width="16" filter="none" id="bar-:ui" class="box-text" x="282" ry="0" height="500"></rect><rect y="1420" rx="0" stroke="none" fill="#4f7942" width="16" filter="none" id="bar-:ui" class="box-text" x="282" ry="0" height="25"></rect></g><g><rect y="280" rx="0" stroke="none" fill="#0f4f34" width="16" filter="none" id="bar-:api" class="box-text" x="422" ry="0" height="350"></rect><rect y="920" rx="0" stroke="none" fill="#0f4f34" width="16" filter="none" id="bar-:api" class="box-text" x="422" ry="0" height="400"></rect></g><g><rect y="1510" rx="0" stroke="none" fill="#0f4f34" width="16" filter="none" id="bar-:cron" class="box-text" x="562" ry="0" height="200"></rect></g><g><rect y="380" rx="0" stroke="none" fill="#0f4f34" width="16" filter="none" id="bar-:db" class="box-text" x="702" ry="0" height="50"></rect><rect y="480" rx="0" stroke="none" fill="#0f4f34" width="16" filter="none" id="bar-:db" class="box-text" x="702" ry="0" height="50"></rect><rect y="1020" rx="0" stroke="none" fill="#0f4f34" width="16" filter="none" id="bar-:db" class="box-text" x="702" ry="0" height="50"></rect><rect y="1170" rx="0" stroke="none" fill="#0f4f34" width="16" filter="none" id="bar-:db" class="box-text" x="702" ry="0" height="50"></rect><rect y="1560" rx="0" stroke="none" fill="#0f4f34" width="16" filter="none" id="bar-:db" class="box-text" x="702" ry="0" height="50"></rect></g><g><rect y="330" rx="0" stroke="none" fill="#0f4f34" width="16" filter="none" id="bar-:log" class="box-text" x="842" ry="0" height="25"></rect><rect y="970" rx="0" stroke="none" fill="#0f4f34" width="16" filter="none" id="bar-:log" class="box-text" x="842" ry="0" height="25"></rect></g><g><rect y="580" rx="0" stroke="none" fill="#3b5c0a" width="16" filter="none" id="bar-:email" class="box-text" x="982" ry="0" height="25"></rect><rect y="1270" rx="0" stroke="none" fill="#3b5c0a" width="16" filter="none" id="bar-:email" class="box-text" x="982" ry="0" height="25"></rect><rect y="1660" rx="0" stroke="none" fill="#3b5c0a" width="16" filter="none" id="bar-:email" class="box-text" x="982" ry="0" height="25"></rect></g></svg>